<svg width="133" height="32" viewBox="0 0 133 32" fill="none" xmlns="http://www.w3.org/2000/svg">
<path d="M24.0023 15.924C26.5643 14.4815 27.6794 12.1514 27.6794 9.43904C27.6794 4.9019 24.4565 1.38582 18.7149 1.38582H0V31.054H18.7558C24.7474 31.054 28.0928 27.4096 28.0928 22.663C28.0928 19.7805 26.771 17.4059 24.0023 15.924ZM4.13137 5.28414H18.5082C21.8128 5.28414 23.5072 6.7686 23.5072 9.65111C23.5072 12.5336 21.8128 14.3558 18.5082 14.3558H4.13137V5.28414ZM18.5491 27.1556H4.13137V18.0421H18.5491C21.9787 18.0421 23.7547 19.5684 23.7547 22.4928C23.7547 25.4172 21.9787 27.1556 18.5491 27.1556ZM123.872 1.38582H114.038L104.91 31.0566H109.082L111.146 24.2757H126.638L128.705 31.0566H133L123.872 1.38582ZM112.346 20.3748L116.972 5.28676H120.897L125.482 20.3748H112.346ZM31.132 2.6582H35.6768V7.32101H31.132V2.6582ZM56.0427 4.88358C54.2335 2.44876 51.4673 0.943359 48.3184 0.943359C42.6636 0.943359 38.3485 5.77111 38.3485 12.1043C38.3485 18.4374 42.6177 23.307 48.3184 23.307C51.3397 23.307 54.014 21.8907 55.8284 19.6312V27.0718H41.1529V31.0566H59.9266V1.38582H56.0427V4.88358ZM49.2217 19.6312C45.3838 19.6312 42.5768 16.5314 42.5768 12.2352C42.5768 7.93888 45.3838 4.84169 49.2217 4.84169C53.0597 4.84169 55.9559 7.9415 55.9559 12.2352C55.9559 16.5288 53.1107 19.6312 49.2217 19.6312ZM31.132 15.9424H35.6768C35.0337 20.9822 34.3932 26.0194 33.7527 31.0566H31.132V15.9424ZM100.038 1.38582H102.843V31.0566H98.7114V8.50177C93.6155 13.7301 88.5221 18.9558 83.4261 24.1841C78.3302 18.9558 73.2368 13.7301 68.1408 8.50177V31.0566H64.0094V1.38582H66.8139C72.3513 7.06706 77.8887 12.7483 83.4261 18.4295C88.9635 12.7483 94.5009 7.06706 100.038 1.38582Z" fill="#1D1D1D"/>
</svg>
