<svg width="38" height="38" viewBox="0 0 38 38" fill="none" xmlns="http://www.w3.org/2000/svg">
<path d="M0.28125 19C0.28125 22.6875 1.34375 26.125 3.15625 29H34.8438C36.6563 26.125 37.7188 22.6875 37.7188 19C37.7188 15.3125 36.6563 11.875 34.8438 9H3.15625C1.34375 11.875 0.28125 15.3125 0.28125 19Z" fill="#FFCE31"/>
<path d="M34.9063 9C31.5938 3.75 25.7188 0.25 19.0313 0.25C12.3438 0.25 6.46875 3.75 3.15625 9H34.9063ZM3.15625 29C6.46875 34.25 12.3438 37.75 19.0313 37.75C25.7188 37.75 31.5938 34.25 34.9063 29H3.15625Z" fill="#ED4C5C"/>
<path d="M4.78125 16.9355H6.78125V18.0605H4.78125V16.9355ZM4.78125 25.1855H6.84375V26.248H4.78125V25.1855Z" fill="#C8B100"/>
<path d="M4.59375 23.4375C4.40625 23.5625 4.28125 23.6875 4.28125 23.75C4.28125 23.8125 4.34375 23.875 4.46875 23.9375C4.59375 24 4.71875 24.125 4.65625 24.25C4.78125 24.125 4.84375 24 4.84375 23.875C4.84375 23.6875 4.71875 23.5 4.59375 23.4375Z" fill="#ED4C5C"/>
<path d="M5.09375 18.0625H6.53125V25.1875H5.09375V18.0625Z" fill="white"/>
<path d="M8.02708 20.6875C7.71458 20.5625 7.15208 20.4375 6.52708 20.4375C6.33958 20.4375 6.08958 20.4375 5.83958 20.5C4.96458 20.625 4.27708 21 4.33958 21.25L4.02708 20.5625C3.96458 20.25 4.71458 19.875 5.65208 19.6875C5.96458 19.625 6.27708 19.625 6.52708 19.625C7.15208 19.625 7.71458 19.6875 8.02708 19.8125V20.6875Z" fill="#ED4C5C"/>
<path d="M5.09375 21.625C4.71875 21.625 4.40625 21.5 4.40625 21.3125C4.40625 21.1875 4.53125 21 4.78125 20.875H5.15625L5.09375 21.625ZM6.53125 21.0625C6.78125 21.125 6.96875 21.1875 7.09375 21.25C7.15625 21.3125 6.90625 21.5625 6.53125 21.75V21.0625Z" fill="#ED4C5C"/>
<path d="M4.15439 23C4.09189 22.875 4.52939 22.625 5.09189 22.4375C5.34189 22.375 5.52939 22.25 5.84189 22.125C6.59189 21.8125 7.21689 21.375 7.09189 21.25L7.21689 22C7.27939 22.125 6.77939 22.5 6.02939 22.875C5.77939 23 5.34189 23.1875 5.09189 23.25C4.65439 23.375 4.27939 23.625 4.27939 23.6875L4.15439 23Z" fill="#ED4C5C"/>
<path d="M18.2188 16.9355H20.2188V18.0605H18.2188V16.9355ZM18.1562 25.1855H20.2188V26.248H18.1562V25.1855Z" fill="#C8B100"/>
<path d="M20.3984 23.4375C20.5859 23.5625 20.7109 23.6875 20.7109 23.75C20.7109 23.8125 20.6484 23.875 20.5234 23.9375C20.3984 24.0625 20.2734 24.25 20.3359 24.3125C20.2109 24.1875 20.1484 24.0625 20.1484 23.9375C20.1484 23.6875 20.2734 23.5 20.3984 23.4375Z" fill="#ED4C5C"/>
<path d="M18.4688 18.0625H19.9062V25.1875H18.4688V18.0625Z" fill="white"/>
<path d="M16.9609 20.6855C17.2734 20.5605 17.8359 20.4355 18.4609 20.4355C18.6484 20.4355 18.8984 20.4355 19.1484 20.498C20.0234 20.623 20.7109 20.998 20.6484 21.248L20.9609 20.498C21.0234 20.1855 20.2734 19.8105 19.3359 19.623H18.4609C17.8359 19.623 17.2734 19.6855 16.9609 19.8105V20.6855Z" fill="#ED4C5C"/>
<path d="M19.8924 21.623C20.2674 21.623 20.5799 21.498 20.5799 21.3105C20.5799 21.1855 20.4549 20.998 20.2049 20.873H19.8299L19.8924 21.623ZM18.4549 21.0605C18.2049 21.123 18.0174 21.1855 17.8924 21.248C17.8299 21.3105 18.0799 21.5605 18.4549 21.748V21.0605Z" fill="#ED4C5C"/>
<path d="M20.8359 23C20.8984 22.875 20.4609 22.625 19.8984 22.4375C19.6484 22.375 19.4609 22.25 19.1484 22.125C18.3984 21.8125 17.7734 21.375 17.8984 21.25L17.7734 22C17.7109 22.125 18.2109 22.5 18.9609 22.875C19.2109 23 19.6484 23.1875 19.8984 23.25C20.3359 23.375 20.7109 23.6875 20.6484 23.75L20.8359 23ZM12.4609 12.9375C13.6484 12.9375 16.0859 13.1875 16.9609 14.0625C16.0234 16.3125 14.5234 15.375 12.4609 15.375C10.4609 15.375 8.89844 16.3125 7.96094 14.0625C8.83594 13.1875 11.2109 12.9375 12.4609 12.9375Z" fill="#ED4C5C"/>
<path d="M15.5234 15.4375C14.7734 15 13.6484 14.9375 12.4609 14.9375C11.2734 14.9375 10.1484 15.0625 9.39844 15.4375L9.64844 16.5C10.3359 16.6875 11.3359 16.8125 12.4609 16.8125C13.5859 16.8125 14.5234 16.6875 15.2734 16.5L15.5234 15.4375ZM16.5859 12.75C16.3359 12.5625 15.8359 12.375 15.3984 12.375C15.2109 12.375 15.0234 12.375 14.8359 12.4375C14.8359 12.4375 14.4609 11.9375 13.5859 11.9375C13.2734 11.9375 13.0234 12 12.7734 12.125V12.0625C12.7109 11.9375 12.5859 11.8125 12.4609 11.8125C12.3359 11.8125 12.1484 12 12.1484 12.125V12.1875C11.8984 12.0625 11.6484 12 11.3359 12C10.4609 12 10.0859 12.5625 10.0859 12.5C9.89844 12.4375 9.71094 12.4375 9.52344 12.4375C6.64844 12.4375 8.08594 14.375 8.08594 14.375L8.39844 14C7.71094 13.125 8.33594 12.625 9.58594 12.625C9.77344 12.625 9.89844 12.625 10.0234 12.6875C9.58594 13.3125 10.3984 13.875 10.3984 13.875L10.5859 13.5625C10.1484 13.25 10.0859 12.1875 11.3359 12.1875C11.6484 12.1875 11.8984 12.25 12.1484 12.4375C12.1484 12.5 12.0859 13.375 12.0234 13.5L12.5234 13.9375L13.0234 13.5C12.9609 13.3125 12.8984 12.5 12.8984 12.4375C13.0859 12.3125 13.3984 12.1875 13.7109 12.1875C15.0234 12.1875 15.0234 13.25 14.4609 13.5625L14.6484 13.875C14.6484 13.875 15.3359 13.3125 15.0234 12.6875C15.1484 12.6875 15.3359 12.625 15.4609 12.625C16.9609 12.625 17.0234 13.75 16.6484 14L16.8984 14.375C16.7734 14.375 17.4609 13.5 16.5859 12.75Z" fill="#C8B100"/>
<path d="M12.0938 11.5625C12.0938 11.375 12.2812 11.1875 12.4688 11.1875C12.7188 11.1875 12.8438 11.375 12.8438 11.5625C12.8438 11.75 12.6562 11.9375 12.4688 11.9375C12.2812 11.9375 12.0938 11.75 12.0938 11.5625Z" fill="#005BBF"/>
<path d="M12.3438 10.498V10.6855H12.1562V10.873H12.3438V11.498H12.0938V11.6855H12.8438L12.9063 11.5605L12.8438 11.498H12.5938V10.873H12.7812V10.6855H12.5938V10.498H12.3438Z" fill="#C8B100"/>
<path d="M12.4688 16.6875C11.4688 16.6875 10.5938 16.5625 9.90625 16.375C10.5938 16.1875 11.4688 16.0625 12.4688 16.0625C13.4688 16.0625 14.3438 16.1875 15.0312 16.375C14.4062 16.5625 13.4688 16.6875 12.4688 16.6875Z" fill="#ED4C5C"/>
<path d="M12.5312 27.5C11.3438 27.5 10.2187 27.1875 9.21875 26.75C8.46875 26.375 8.03125 25.6875 8.03125 24.875V21.875H17.0312V24.875C17.0312 25.6875 16.5312 26.4375 15.8437 26.75C14.8437 27.25 13.7187 27.5 12.5312 27.5ZM12.4688 16.875H16.9688V21.875H12.4688V16.875Z" fill="white"/>
<path d="M12.5312 24.875C12.5312 26.0625 11.5312 27 10.2812 27C9.03125 27 8.03125 26.0625 8.03125 24.875V21.875L12.5312 21.875V24.875Z" fill="#ED4C5C"/>
<path d="M8.96875 26.623C9.09375 26.6855 9.28125 26.8105 9.53125 26.873V21.748H9.03125L8.96875 26.623ZM7.96875 24.8105C7.96875 25.4355 8.21875 25.9355 8.46875 26.1855V21.748H7.96875V24.8105Z" fill="#C8B100"/>
<path d="M9.96875 26.998H10.4688V21.748H9.96875V26.998Z" fill="#C7B500"/>
<path d="M10.9688 26.873C11.1562 26.8105 11.4062 26.6855 11.5312 26.623V21.748H11.0312L10.9688 26.873Z" fill="#C8B100"/>
<path d="M7.96875 16.875H12.4688V21.875L7.96875 21.875V16.875Z" fill="#ED4C5C"/>
<path d="M12.0234 26.1875C12.2734 26 12.4609 25.5625 12.5234 25.0625V21.8125H12.0234V26.1875Z" fill="#C8B100"/>
<path d="M17.0312 21.876V24.876C17.0312 26.0635 16.0313 27.001 14.7813 27.001C13.5313 27.001 12.5312 26.0635 12.5312 24.876V21.876H17.0312ZM15.4062 17.751C15.5937 18.126 15.5937 19.0635 15.0312 18.876C15.1562 18.9385 15.2188 19.376 15.4062 19.626C15.7187 20.001 16.0937 19.6885 16.0312 19.251C15.9063 18.5635 15.9687 18.126 16.0937 17.4385C16.0937 17.501 16.4063 17.501 16.5312 17.376C16.4688 17.5635 16.4063 17.8135 16.5312 17.8135C16.4063 18.001 16.0937 18.3135 16.0312 18.501C15.9688 18.9385 16.6562 19.751 15.9062 19.9385C15.4063 20.0635 15.7188 20.4385 15.9062 20.626C15.9062 20.626 15.6562 21.4385 15.7812 21.376C15.2812 21.5635 15.4062 21.126 15.4062 21.126C15.6562 20.376 14.9688 20.3135 15.0312 20.1885C14.4063 20.126 15.0937 20.751 14.5312 20.751C14.4063 20.751 14.1563 20.876 14.1563 20.876C13.4688 20.8135 13.8438 20.1885 14.0938 20.251C14.2812 20.3135 14.4688 20.626 14.4688 20.1885C14.4688 20.1885 14.1563 19.6885 14.9688 19.6885C14.6563 19.6885 14.4687 19.4385 14.3438 19.126C14.2188 19.1885 14.0312 19.501 13.3438 19.5635C13.3438 19.5635 13.1563 18.876 13.3438 19.001C13.5937 19.126 13.7188 19.126 13.9688 18.876C13.8438 18.6885 13.0938 18.4385 13.2188 18.001C13.2188 17.876 13.5938 17.6885 13.5938 17.6885C13.5313 18.001 13.7188 18.3135 14.0938 18.3135C14.5937 18.376 14.4063 18.1885 14.4688 18.0635C14.5313 17.9385 14.9063 18.126 14.7813 17.8135C14.7813 17.751 14.3438 17.6885 14.4688 17.501C14.7188 17.1885 15.0938 17.4385 15.4062 17.751ZM12.5312 26.876L12.4062 26.5635L12.5312 26.1885L12.6562 26.5635L12.5312 26.876Z" fill="#ED4C5C"/>
<path d="M9.34375 17.9375V18.25H9.46875V18.5H9.15625V19.125H9.34375V20.5H8.96875V21.1875H11.5312V20.5H11.2188V19.125H11.3438V18.5H11.0313V18.25H11.2188V17.9375H10.5938V18.25H10.7188V18.5H10.4063V17.75H10.5938V17.4375H9.90625V17.75H10.0938V18.5H9.78125V18.25H9.90625V17.9375H9.34375ZM16.4062 25.625V22.5H13.1562V25.625L14.6562 26.3125H14.8437L16.4062 25.625ZM14.6562 22.75V23.8125L13.5937 22.75H14.6562ZM13.3438 22.8125L14.5937 24.0625L13.3438 25.3125V22.8125ZM13.4688 25.5625L14.6562 24.375V26.125L13.4688 25.5625ZM14.8437 26.0625V24.3125L16.0312 25.5L14.8437 26.0625ZM16.1562 25.3125L14.9062 24.0625L16.1562 22.8125V25.3125ZM14.8437 22.75H15.9062L14.8437 23.8125V22.75Z" fill="#C8B100"/>
<path d="M11.0312 21.8105C11.0312 20.873 11.6562 20.1855 12.4688 20.1855C13.2812 20.1855 13.9062 20.9355 13.9062 21.8105C13.9062 22.6855 13.2812 23.4355 12.4688 23.4355C11.6562 23.4355 11.0312 22.748 11.0312 21.8105Z" fill="#ED4C5C"/>
<path d="M11.4688 21.8125C11.4688 21.125 11.9062 20.625 12.4688 20.625C13.0312 20.625 13.4688 21.1875 13.4688 21.8125C13.4688 22.5 13.0312 23 12.4688 23C11.9688 23.0625 11.4688 22.5 11.4688 21.8125Z" fill="#005BBF"/>
<path d="M12.0312 20.998L11.7812 21.6855L11.9688 21.748L11.8438 21.998H12.2188L12.0938 21.748L12.2813 21.6855L12.0312 20.998ZM12.9688 20.998L12.7188 21.6855L12.9063 21.748L12.7812 21.998H13.1562L13.0938 21.748L13.2812 21.6855L12.9688 20.998ZM12.5312 21.8105L12.2188 22.498L12.4062 22.5605L12.3438 22.8105H12.6562L12.5938 22.5605L12.7812 22.498L12.5312 21.8105Z" fill="#C8B100"/>
</svg>
