<svg width="190" height="206" viewBox="0 0 190 206" fill="none" xmlns="http://www.w3.org/2000/svg">
<path d="M107.997 191C61.1299 191 23 153.517 23 107.491H46.4736C46.4736 119.448 50.0822 131.137 56.8432 141.079C63.6042 151.021 73.2136 158.77 84.4567 163.346C95.6997 167.922 108.071 169.119 120.007 166.786C131.943 164.453 142.906 158.696 151.511 150.24C160.116 141.785 165.976 131.013 168.35 119.285C170.724 107.558 169.506 95.4022 164.849 84.3551C160.192 73.3081 152.306 63.866 142.187 57.2229C132.069 50.5798 120.173 47.0341 108.003 47.0341V24C154.87 24 193 61.4833 193 107.515C193 153.547 154.864 191 107.997 191Z" fill="#F61B38" fill-opacity="0.3"/>
<path d="M108 169C91.8218 169 76.3062 162.573 64.8665 151.134C53.4268 139.694 47 124.178 47 108C47 91.8218 53.4268 76.3062 64.8665 64.8665C76.3062 53.4268 91.8218 47 108 47V70.2181C97.9796 70.2181 88.3696 74.1987 81.2841 81.2841C74.1987 88.3696 70.2182 97.9796 70.2182 108C70.2182 118.02 74.1987 127.63 81.2841 134.716C88.3696 141.801 97.9796 145.782 108 145.782V169Z" fill="#F61B38" fill-opacity="0.5"/>
<path d="M107.43 215.035V191.629C153.762 191.629 191.48 153.905 191.48 107.511C191.48 61.1175 153.786 23.3934 107.43 23.3934C61.074 23.3934 23.3806 61.1175 23.3806 107.511H0C0 48.2297 48.1966 0 107.43 0C166.663 0 214.86 48.2297 214.86 107.511C214.86 166.793 166.663 215.035 107.43 215.035Z" fill="#F0F0F0" fill-opacity="0.2"/>
</svg>
