<svg width="22" height="22" viewBox="0 0 22 22" fill="none" xmlns="http://www.w3.org/2000/svg">
<circle cx="11.0078" cy="11" r="9.9" fill="#1D1D1D" stroke="#1D1D1D" stroke-width="1.8"/>
<path d="M13.843 9.61328C13.8922 10.0956 13.9204 10.5624 13.9204 10.9993C13.9204 11.8171 13.8215 12.7406 13.6703 13.6742C12.7366 13.8254 11.8131 13.9243 10.9953 13.9243C10.1812 13.9243 9.25801 13.8257 8.32027 13.674C8.16915 12.7403 8.07031 11.817 8.07031 10.9993C8.07031 10.5626 8.0985 10.0957 8.14779 9.61328C9.13196 9.77082 10.1138 9.87428 10.9953 9.87428C11.877 9.87428 12.8588 9.77082 13.843 9.61328Z" fill="#F0F0F0"/>
<path d="M15.1691 9.37013C15.23 9.93456 15.2654 10.4841 15.2654 10.9992C15.2654 11.7508 15.1901 12.5754 15.0703 13.4123C16.7697 13.0577 18.3404 12.6047 19.1819 12.3468C19.4538 12.2635 19.5607 12.2303 19.704 12.173C19.7756 12.1444 19.8413 12.1152 19.9269 12.0743C19.9688 11.7218 19.9904 11.363 19.9904 10.9992C19.9904 10.0375 19.8396 9.11106 19.5603 8.24219L19.4876 8.26508C18.6077 8.53275 16.9606 9.00594 15.1691 9.37013Z" fill="#F0F0F0"/>
<path d="M19.0442 6.98791C18.1597 7.25596 16.6248 7.69154 14.9798 8.03066C14.6009 5.72772 13.9367 3.43079 13.6172 2.39062C15.9932 3.11602 17.9519 4.79807 19.0442 6.98791Z" fill="#F0F0F0"/>
<path d="M13.6624 8.27624C12.7312 8.42669 11.8106 8.52499 10.9952 8.52499C10.1798 8.52499 9.25928 8.42669 8.32812 8.27625C8.68494 6.09718 9.32188 3.87119 9.6476 2.80857C9.73091 2.53662 9.76409 2.42981 9.82143 2.28644C9.85006 2.21482 9.8792 2.14913 9.92009 2.06355C10.2726 2.02158 10.6314 2 10.9952 2C11.3753 2 11.7498 2.02355 12.1175 2.06928C12.1253 2.09912 12.1325 2.12582 12.1396 2.15108C12.1607 2.22571 12.1937 2.3306 12.2491 2.50661L12.2549 2.52509C12.5325 3.40762 13.2683 5.86915 13.6624 8.27624Z" fill="#F0F0F0"/>
<path d="M6.99403 8.03064C7.37123 5.73785 8.03103 3.4533 8.34994 2.41277L8.35672 2.39062C5.98065 3.11601 4.022 4.79806 2.92969 6.9879C3.81412 7.25595 5.34908 7.69153 6.99403 8.03064Z" fill="#F0F0F0"/>
<path d="M2.42234 8.24219C2.14303 9.11106 1.99219 10.0375 1.99219 10.9992C1.99219 11.3754 2.01527 11.7462 2.0601 12.1103L2.20194 12.1577L2.20307 12.158L2.20446 12.1585L2.20544 12.1588C2.25109 12.1739 3.5891 12.6158 5.35118 13.0542C5.84839 13.1779 6.37486 13.3001 6.91229 13.4122C6.79245 12.5753 6.71723 11.7509 6.71723 10.9992C6.71723 10.4839 6.75258 9.9344 6.81342 9.37014C5.0216 9.00582 3.37407 8.53248 2.49445 8.26485L2.48833 8.26298L2.42234 8.24219Z" fill="#F0F0F0"/>
<path d="M10.9912 15.2752C11.7428 15.2752 12.5674 15.1999 13.4043 15.0801C13.0497 16.7794 12.5967 18.3502 12.3388 19.1915C12.2555 19.4635 12.2223 19.5703 12.165 19.7137C12.1363 19.7854 12.1072 19.851 12.0663 19.9366C11.7138 19.9786 11.355 20.0002 10.9912 20.0002C10.6274 20.0002 10.2686 19.9786 9.91607 19.9366C9.87518 19.851 9.84604 19.7854 9.81741 19.7137C9.76007 19.5704 9.7269 19.4635 9.64358 19.1916C9.38566 18.3502 8.93271 16.7796 8.57812 15.0804C9.41224 15.1998 10.237 15.2752 10.9912 15.2752Z" fill="#F0F0F0"/>
<path d="M5.02501 14.3643C3.91074 14.087 2.96172 13.8085 2.38281 13.6309C3.2542 16.4851 5.50614 18.737 8.36047 19.6084L8.35369 19.5863C8.07522 18.6777 7.53686 16.8207 7.15367 14.8379C6.40845 14.6938 5.68392 14.5282 5.02501 14.3643Z" fill="#F0F0F0"/>
<path d="M19.5727 13.6376C18.6641 13.9161 16.8069 14.4545 14.824 14.8376C14.4408 16.8205 13.9024 18.6776 13.624 19.5863L13.6172 19.6084C16.4715 18.737 18.7234 16.4851 19.5948 13.6309L19.5727 13.6376Z" fill="#F0F0F0"/>
<path d="M2.07812 12.1348C2.10928 12.1388 2.13468 12.1431 2.14311 12.145C2.15049 12.1468 2.16205 12.1499 2.16624 12.151L2.17551 12.1536L2.18049 12.1552L2.18574 12.1568L2.19014 12.1582C2.18767 12.1574 2.13766 12.1449 2.07812 12.1348Z" fill="#F0F0F0"/>
</svg>
